Coordinates
version=1
nRows=17
nColumns=24
inDegrees=yes

Units are S.I. units (second, meters, Newtons, ...)
Angles are in degrees.

endheader
time	pelvis_tilt	pelvis_list	pelvis_rotation	pelvis_tx	pelvis_ty	pelvis_tz	hip_flexion_r	hip_adduction_r	hip_rotation_r	knee_angle_r	ankle_angle_r	subtalar_angle_r	mtp_angle_r	hip_flexion_l	hip_adduction_l	hip_rotation_l	knee_angle_l	ankle_angle_l	subtalar_angle_l	mtp_angle_l	lumbar_extension	lumbar_bending	lumbar_rotation
      3.59000000	    -19.59975092	      9.95573525	     -6.05440501	     -2.30974845	     -0.03254213	     -0.25466023	     23.05052692	     -8.15531581	      1.98821124	    -62.63582256	    -35.38777702	    -19.10495420	     -1.21498188	     39.07746582	     13.00326048	      3.37762833	    -24.18864519	     18.59622664	     10.50292614	    -71.81371290	     14.61501446	     -8.46204894	      6.68995177
      3.59500000	    -19.64040006	      9.96403444	     -6.07492694	     -2.30273660	     -0.03123702	     -0.25473939	     24.25442048	     -7.81504514	      2.23586552	    -63.79322516	    -33.00637712	    -20.13842305	     -5.10459827	     38.28521931	     12.98290459	      3.12982700	    -23.64104307	     19.06019007	     11.08267441	    -72.00502825	     14.67615616	     -8.44152618	      6.57543353
      3.60000000	    -19.70102700	      9.94232244	     -6.07791509	     -2.29572241	     -0.02996172	     -0.25483350	     25.42531409	     -7.43312175	      2.54377155	    -64.78768464	    -30.80662806	    -20.92127571	     -7.71960947	     37.51725921	     12.92990899	      2.79851602	    -23.10630757	     19.52306731	     11.75005674	    -72.18335574	     14.75555557	     -8.39266025	      6.44966002
      3.60500000	    -19.58323448	      9.99405107	     -6.12335389	     -2.28863724	     -0.02842448	     -0.25488526	     26.41225851	     -7.15287209	      2.84315543	    -65.69367377	    -28.59568495	    -21.59990498	    -11.02497591	     36.45353103	     12.99934939	      2.71959161	    -22.35421281	     19.82699825	     12.09392261	    -72.41838601	     14.66458092	     -8.43571282	      6.35845967
      3.61000000	    -19.64711029	      9.95637438	     -6.10587615	     -2.28166121	     -0.02713967	     -0.25497135	     27.55599759	     -6.76721798	      3.07766529	    -66.48497265	    -26.63882289	    -22.27916103	    -13.72069359	     35.63164750	     12.96974938	      2.56187486	    -21.71169189	     20.15177513	     12.57534155	    -72.55654229	     14.74303012	     -8.38379469	      6.23613252
      3.61500000	    -19.63570157	      9.86143989	     -6.03372470	     -2.27459599	     -0.02571441	     -0.25528003	     28.51412640	     -6.39214430	      3.29331876	    -67.01419223	    -25.52540104	    -23.16251498	    -13.58079267	     34.65481300	     12.97841464	      2.69735568	    -20.97097090	     20.37942333	     12.85956560	    -72.53469077	     14.73049942	     -8.27860092	      6.04149020
      3.62000000	    -19.52033718	      9.83948168	     -6.01636059	     -2.26753712	     -0.02419651	     -0.25531354	     29.43985708	     -6.08194359	      3.38250638	    -67.68301948	    -23.02095614	    -23.35407854	    -18.61175358	     33.52560928	     13.03934903	      2.85372792	    -20.11084601	     20.51849796	     12.94802481	    -72.87849382	     14.62491939	     -8.28352519	      5.93071580
      3.62500000	    -19.49226516	      9.74213381	     -5.96897677	     -2.26052317	     -0.02282112	     -0.25550856	     30.36043049	     -5.70384922	      3.60904183	    -68.07924452	    -21.73921955	    -23.74795678	    -18.43871104	     32.52959401	     13.01873280	      2.89493145	    -19.34342642	     20.67517606	     13.23444648	    -72.85537578	     14.59670094	     -8.18906240	      5.77970525
      3.63000000	    -19.45072727	      9.60913250	     -5.89749382	     -2.25351087	     -0.02141897	     -0.25574982	     31.23143955	     -5.32047352	      3.76331345	    -68.36990438	    -20.47734959	    -24.07120061	    -18.31634625	     31.47701510	     13.00046315	      3.13961743	    -18.50975749	     20.75143111	     13.33799424	    -72.85776830	     14.54524594	     -8.06642313	      5.60369836
      3.63500000	    -19.39625047	      9.46912034	     -5.78299048	     -2.24650764	     -0.02001424	     -0.25601197	     32.06013566	     -4.97198968	      3.83698166	    -68.56840483	    -19.20315016	    -24.32096288	    -18.22186985	     30.38459060	     13.00343573	      3.51049596	    -17.62725076	     20.74008597	     13.33204312	    -72.87672311	     14.47227343	     -7.95935963	      5.36193740
      3.64000000	    -19.35829368	      9.26150103	     -5.66068328	     -2.23954322	     -0.01863794	     -0.25628000	     32.86284980	     -4.56173438	      3.87467110	    -68.64929285	    -17.94010873	    -24.45653070	    -17.89741803	     29.31550273	     12.93421827	      3.91330217	    -16.77136440	     20.73949846	     13.33713526	    -72.88667336	     14.40290614	     -7.78007624	      5.12055647
      3.64500000	    -19.31098523	      9.03996875	     -5.53842493	     -2.23259226	     -0.01724419	     -0.25657701	     33.62170596	     -4.15183267	      3.91009205	    -68.60727755	    -16.76076359	    -24.51693463	    -17.09760267	     28.20292762	     12.86197259	      4.47038397	    -15.84798990	     20.63267052	     13.14884693	    -72.89120863	     14.32010782	     -7.58551798	      4.86990291
      3.65000000	    -19.31332346	      8.78287845	     -5.37401848	     -2.22574386	     -0.01593702	     -0.25702880	     34.35458086	     -3.74079578	      4.04078346	    -68.30540264	    -16.62391119	    -24.94078620	    -11.95672576	     27.18044529	     12.75897163	      5.02472264	    -14.98825793	     20.48683412	     13.03088584	    -72.64997979	     14.26924854	     -7.35188280	      4.57130583
      3.65500000	    -19.28155670	      8.50992639	     -5.20160008	     -2.21891071	     -0.01466308	     -0.25730839	     35.06899140	     -3.31986633	      4.00211924	    -68.06459103	    -15.39220730	    -24.79273454	    -10.95075843	     26.12130704	     12.62085484	      5.61565330	    -14.13582130	     20.42090854	     12.92646889	    -72.70052459	     14.17733077	     -7.13287786	      4.29618547
      3.66000000	    -19.32914017	      8.18556186	     -5.01128321	     -2.21215245	     -0.01341160	     -0.25781529	     35.77440731	     -2.87386648	      4.08862197	    -67.48892735	    -15.39494583	    -25.21124125	     -5.42180539	     25.16597585	     12.43633098	      6.20525197	    -13.30244631	     20.21826545	     12.74156615	    -72.56830855	     14.15544100	     -6.82662419	      3.95790596
      3.66500000	    -19.35015342	      7.84216417	     -4.75351408	     -2.20543718	     -0.01222547	     -0.25811417	     36.46655521	     -2.43777092	      3.94294024	    -67.02266138	    -14.18169824	    -24.92219652	     -4.63916309	     24.23891015	     12.20888611	      6.63398262	    -12.58150896	     20.15092736	     12.88589978	    -72.59734523	     14.09095014	     -6.56168169	      3.55648582
      3.67000000	    -19.39589101	      7.54748197	     -4.56810500	     -2.19875917	     -0.01108889	     -0.25860067	     37.14011103	     -2.04382941	      4.03561156	    -66.25816986	    -14.17831757	    -25.26614371	      0.55304581	     23.27055413	     12.03072770	      7.38893292	    -11.70156235	     19.87631496	     12.53610161	    -72.44252613	     14.06519470	     -6.29333348	      3.27180887
